<svg width="20" height="35" viewBox="0 0 20 35" fill="none" xmlns="http://www.w3.org/2000/svg">
<path id="Vector" d="M7.81674 35C7.78639 32.8387 7.73682 30.1603 7.66701 29.5896C7.54559 28.6008 5.42797 27.9028 4.64082 26.2743C3.85366 24.6458 1.97683 22.6674 1.67431 21.9693C1.37078 21.2712 3.42973 21.2712 4.19159 22.435C4.95345 23.5987 5.85089 23.9478 6.39623 23.4238C6.94056 22.9007 6.33553 20.1668 5.36727 18.829C4.398 17.4903 3.73225 14.8731 4.58011 14.8147C5.42797 14.7564 6.63805 18.1883 7.12268 18.9447C7.60631 19.7011 8.78703 21.8808 8.3631 17.8675C7.93917 13.8542 7.90984 12.5465 8.69699 12.6049C9.48313 12.6632 9.75529 17.2278 10.1185 19.0312C10.4828 20.8347 11.1778 19.5854 11.3599 19.2354C11.5421 18.8864 11.5421 15.0481 12.2827 14.1167C13.0243 13.1862 13.5393 14.175 13.5393 14.4667C13.5393 14.7574 12.6914 20.0501 12.9332 20.6899C13.1761 21.3296 14.5379 18.8281 14.5379 18.8281C14.5379 18.8281 15.839 16.2108 16.3844 16.3858C16.9287 16.5608 16.6262 18.2165 15.4758 19.7876C14.3254 21.3578 14.2657 22.3767 14.3254 25.1106C14.3851 27.8444 13.2358 29.1239 13.2358 29.1239V33.3725C17.8585 29.926 23.7247 22.6712 16.8629 10.3483C16.6404 12.8547 15.8137 14.5551 15.8137 14.5551C15.9402 13.861 15.8886 12.9364 15.7358 11.9272C15.2249 8.57694 13.7467 5.4318 11.5147 2.81069C10.6971 1.85236 9.85295 0.915131 8.98331 0C8.98331 0 -10.4274 21.0963 7.81674 35Z" fill="#FF5906"/>
</svg>
